# Blender 4.5.3 LTS
# www.blender.org
mtllib rock.mtl
o Rock.005
v -0.265261 -0.928076 -1.293446
v -0.152946 -0.988339 -1.296286
v -0.252944 -0.704920 1.309093
v 0.506721 -0.005300 -1.224540
v 0.828185 0.001055 0.979701
v 0.340457 -1.408260 1.328376
v 0.406958 -1.537290 1.166851
v 0.878673 -1.486969 0.669173
v 0.905555 -1.037335 1.011174
v -0.785823 0.005175 0.937169
v 0.541036 -1.317721 -0.241743
v -0.690690 -0.141178 -1.048126
v 0.784278 -0.892793 0.038705
v -0.444122 -0.026529 0.036571
v 0.559441 -0.886805 -1.427545
v 0.520822 -0.238664 1.276237
v -0.725893 -0.010524 -0.039827
v -0.753887 -1.057319 -1.207376
v 0.727665 -1.387899 -0.045625
v -0.179954 -0.011667 0.673680
v 0.627688 -0.836556 -1.380803
v -0.526387 -1.354898 1.351986
v -0.829375 -0.049845 0.995693
v -0.659005 -1.221512 -0.694135
v -0.912657 -1.224121 1.000216
v -0.021282 -0.010914 1.238671
v 0.563207 -0.645211 -0.382727
v 0.601917 -1.099530 -0.905773
v -0.791009 -0.975324 -1.195442
v 0.799319 -1.054432 0.462093
v -0.464010 -0.019258 1.257403
v -0.691485 -0.039540 -0.852514
v -0.215414 -1.049757 -1.086276
v -0.809016 -1.062349 -0.929856
v 0.779451 -0.317042 0.145506
v 0.530954 0.004114 -0.299657
v 0.736378 -0.006800 -0.156864
v 0.122267 -0.004984 1.244797
v 0.570831 -0.042890 -1.158594
v -0.065354 -0.004323 -1.130445
v -0.321633 -1.702690 0.947012
v -0.404779 -1.574983 0.464681
v -0.487050 -0.017265 -0.484868
v -0.592014 -0.036899 -1.045300
v -0.900830 -1.108083 1.009733
v -0.916060 -1.341601 0.452282
v 0.574002 -0.217108 -1.248365
v 0.776583 -0.639514 -0.191158
v 0.888019 -0.449949 0.982641
v 0.692435 -1.309892 1.212565
v 0.795526 -1.567347 0.478326
v 0.820260 -1.344134 0.116192
v -0.208936 -1.250399 -0.639333
vn -0.0147 0.7411 0.6712
vn -0.0108 0.9999 -0.0015
vn -0.6292 0.7748 -0.0617
vn -0.3923 -0.4110 0.8229
vn -0.2289 0.6342 0.7385
vn -0.8158 0.0610 0.5752
vn 0.9368 -0.0033 -0.3499
vn 0.8578 -0.1129 -0.5015
vn 0.6894 0.1968 -0.6972
vn 0.9315 -0.2185 -0.2908
vn 0.5792 -0.6306 -0.5166
vn 0.9949 -0.0151 -0.0997
vn 0.8932 -0.0241 -0.4491
vn 0.5140 -0.6803 -0.5225
vn 0.6788 0.6367 -0.3658
vn 0.4527 0.8591 -0.2387
vn 0.7307 -0.6526 -0.2007
vn -0.8617 -0.3705 0.3467
vn -0.7760 0.0007 -0.6307
vn -0.7238 0.3216 -0.6105
vn -0.1580 0.0140 -0.9873
vn -0.6880 0.7199 -0.0919
vn -0.3028 0.7483 -0.5901
vn -0.0342 0.9993 -0.0138
vn -0.1133 0.7765 -0.6199
vn 0.2869 -0.4121 -0.8648
vn -0.0570 -0.6842 -0.7270
vn -0.2726 -0.9221 -0.2748
vn -0.9183 -0.3779 -0.1178
vn -0.4456 -0.5868 -0.6761
vn 0.0174 -0.9393 -0.3426
vn 0.0391 -0.9446 -0.3260
vn -0.8176 0.4067 0.4076
vn -0.4450 0.8901 0.0983
vn 0.2535 0.6941 -0.6738
vn 0.8711 0.4614 -0.1682
vn 0.0020 0.7272 0.6864
vn 0.6628 0.6737 0.3268
vn 0.9344 0.0678 0.3498
vn 0.9919 0.0926 -0.0874
vn 0.9953 0.0208 -0.0946
vn 0.8435 -0.5237 0.1190
vn 0.9256 -0.0505 0.3751
vn 0.2572 -0.8479 0.4636
vn 0.5947 -0.3517 0.7230
vn 0.1589 -0.4126 0.8969
vn -0.1980 -0.9524 -0.2317
vn 0.4989 -0.8535 -0.1506
vn -0.2275 -0.9513 0.2080
vn -0.8791 -0.4739 -0.0512
vn 0.0056 0.0673 0.9977
vn 0.3310 0.2412 0.9123
vn -0.0199 0.9998 -0.0036
vt 0.788878 0.067823
vt 0.768757 0.178402
vt 0.689463 0.330567
vt 0.027081 0.657873
vt 0.289720 0.642073
vt 0.075467 0.756430
vt 0.865159 0.568213
vt 0.892535 0.778349
vt 0.775583 0.742098
vt 0.046774 0.165571
vt 0.051928 0.127988
vt 0.143347 0.163553
vt 0.198034 0.125509
vt 0.073314 0.079239
vt 0.324052 0.150017
vt 0.203105 0.070176
vt 0.733659 0.550782
vt 0.992150 0.545684
vt 0.942349 0.694727
vt 0.050863 0.763032
vt 0.178764 0.786684
vt 0.212572 0.942475
vt 0.065296 0.833759
vt 0.243505 0.965582
vt 0.204011 0.964916
vt 0.700750 0.487568
vt 0.738008 0.414045
vt 0.724537 0.525753
vt 0.641619 0.936245
vt 0.681285 0.838452
vt 0.833866 0.939772
vt 0.829532 0.532187
vt 0.465112 0.103633
vt 0.608464 0.081852
vt 0.476332 0.114997
vt 0.386095 0.258289
vt 0.335013 0.217727
vt 0.355471 0.140477
vt 0.459123 0.264172
vt 0.462805 0.160458
vt 0.611814 0.955941
vt 0.292093 0.742152
vt 0.555874 0.719913
vt 0.642425 0.137645
vt 0.640031 0.188742
vt 0.615374 0.832318
vt 0.704918 0.066662
vt 0.891446 0.798327
vt 0.739512 0.739246
vt 0.746753 0.721261
vt 0.640735 0.182602
vt 0.820206 0.054817
vt 0.961482 0.090700
vt 0.965187 0.315310
vt 0.935838 0.351700
vt 0.204692 0.349071
vt 0.096348 0.241984
vt 0.253830 0.200558
vt 0.015217 0.256940
vt 0.085010 0.354127
vt 0.574746 0.629965
vt 0.646768 0.656058
vt 0.565668 0.675848
vt 0.429001 0.493308
vt 0.660861 0.397205
vt 0.642387 0.499607
vt 0.334534 0.099491
vt 0.386953 0.666615
vt 0.440296 0.577795
vt 0.321688 0.483286
vt 0.290840 0.556525
vt 0.159428 0.585225
vt 0.238304 0.449113
vt 0.035941 0.417438
vt 0.015892 0.497443
vt 0.666922 0.540707
vt 0.290567 0.371173
vt 0.736726 0.309513
vt 0.287002 0.735123
vt 0.338692 0.965218
vt 0.490276 0.710720
vt 0.306435 0.735783
vt 0.315758 0.588854
vt 0.635622 0.076491
vt 0.966324 0.521706
vt 0.951420 0.532652
vt 0.626972 0.346855
vt 0.288855 0.523619
vt 0.722714 0.642906
vt 0.682115 0.429759
vt 0.335725 0.140854
vt 0.152722 0.777707
s 1
usemtl M_LittleRock_01
f 26/1/1 20/2/2 17/3/3
f 22/4/4 31/5/5 45/6/6
f 27/7/7 21/8/8 47/9/9
f 52/10/10 19/11/11 13/12/12
f 13/12/12 19/11/11 48/13/13
f 11/14/14 48/13/13 19/11/11
f 37/15/15 48/13/13 27/16/7
f 27/7/7 47/9/9 36/17/16
f 11/18/14 28/19/17 27/7/7
f 22/4/4 45/6/6 25/20/18
f 29/21/19 12/22/20 1/23/21
f 12/22/20 32/24/22 44/25/23
f 32/26/22 43/27/24 44/28/23
f 44/29/23 40/30/25 1/31/21
f 43/27/24 40/32/25 44/28/23
f 1/33/21 15/34/26 2/35/27
f 40/32/25 43/27/24 20/2/2
f 24/36/28 34/37/29 18/38/30
f 53/39/31 24/36/28 33/40/32
f 23/41/33 34/42/29 25/43/18
f 10/44/34 17/3/3 23/45/33
f 45/46/6 23/41/33 25/43/18
f 17/3/3 43/27/24 32/26/22
f 31/47/5 26/1/1 10/44/34
f 40/30/25 15/48/26 1/31/21
f 4/49/35 47/9/9 40/30/25
f 47/9/9 21/8/8 15/48/26
f 47/9/9 39/50/36 36/17/16
f 28/19/17 21/8/8 27/7/7
f 28/51/17 33/40/32 2/35/27
f 38/52/37 20/2/2 26/1/1
f 5/53/38 37/54/15 36/55/16
f 49/56/39 30/57/40 35/58/41
f 52/10/10 13/12/12 8/59/42
f 8/59/42 49/56/39 9/60/43
f 7/61/44 50/62/45 6/63/46
f 42/64/47 19/65/11 51/66/48
f 35/58/41 30/57/40 48/13/13
f 27/16/7 36/67/16 37/15/15
f 38/52/37 36/55/16 40/32/25
f 47/9/9 4/49/35 39/50/36
f 15/48/26 40/30/25 47/9/9
f 42/64/47 24/36/28 53/39/31
f 6/63/46 22/68/4 41/69/49
f 22/68/4 46/70/50 41/69/49
f 42/64/47 46/70/50 24/36/28
f 10/44/34 26/1/1 17/3/3
f 26/71/1 3/72/51 16/73/52
f 50/74/45 16/73/52 6/75/46
f 8/59/42 30/57/40 49/56/39
f 16/73/52 50/74/45 9/60/43
f 8/76/42 7/61/44 51/66/48
f 11/14/14 27/16/7 48/13/13
f 51/66/48 7/61/44 41/69/49
f 5/77/38 49/56/39 37/15/15
f 16/73/52 49/56/39 5/77/38
f 38/52/37 5/53/38 36/55/16
f 6/63/46 41/69/49 7/61/44
f 3/72/51 31/5/5 22/4/4
f 17/3/3 20/2/2 14/78/53
f 14/78/53 20/2/2 43/27/24
f 31/5/5 23/79/33 45/6/6
f 23/41/33 17/80/3 34/42/29
f 12/22/20 44/25/23 1/23/21
f 34/42/29 12/22/20 29/21/19
f 34/42/29 32/24/22 12/22/20
f 34/42/29 17/80/3 32/24/22
f 18/38/30 2/35/27 33/40/32
f 24/36/28 18/38/30 33/40/32
f 34/42/29 46/81/50 25/43/18
f 23/79/33 31/5/5 10/82/34
f 17/3/3 14/78/53 43/27/24
f 3/72/51 26/71/1 31/5/5
f 46/70/50 34/37/29 24/36/28
f 25/83/18 46/70/50 22/68/4
f 42/64/47 41/69/49 46/70/50
f 6/75/46 3/72/51 22/4/4
f 28/51/17 15/34/26 21/84/8
f 36/55/16 39/85/36 4/86/35
f 11/87/14 53/39/31 28/51/17
f 28/51/17 2/35/27 15/34/26
f 16/73/52 38/88/37 26/71/1
f 40/32/25 36/55/16 4/86/35
f 16/73/52 5/77/38 38/88/37
f 35/58/41 48/13/13 37/15/15
f 48/13/13 30/57/40 13/12/12
f 37/15/15 49/56/39 35/58/41
f 51/66/48 41/69/49 42/64/47
f 3/72/51 6/75/46 16/73/52
f 7/61/44 8/76/42 50/62/45
f 50/62/45 8/76/42 9/89/43
f 51/66/48 19/65/11 52/90/10
f 52/90/10 8/76/42 51/66/48
f 19/65/11 53/39/31 11/87/14
f 19/65/11 42/64/47 53/39/31
f 53/39/31 33/40/32 28/51/17
f 34/37/29 29/91/19 18/38/30
f 1/23/21 18/92/30 29/21/19
f 49/56/39 16/73/52 9/60/43
f 13/12/12 30/57/40 8/59/42
f 2/35/27 18/38/30 1/33/21
f 20/2/2 38/52/37 40/32/25
