# Blender 5.0.0
# www.blender.org
mtllib SMALLSWORD.mtl
o Cylinder.001
v 0.000000 -1.642617 -0.056539
v 0.000000 -1.642617 0.056539
v 0.106066 -1.686551 -0.056539
v 0.106066 -1.686551 0.056539
v 0.150000 -1.792617 -0.056539
v 0.150000 -1.792617 0.056539
v 0.106066 -1.898683 -0.056539
v 0.106066 -1.898683 0.056539
v 0.000000 -1.942617 -0.056539
v 0.000000 -1.942617 0.056539
v -0.106066 -1.898683 -0.056539
v -0.106066 -1.898683 0.056539
v -0.150000 -1.792617 -0.056539
v -0.150000 -1.792617 0.056539
v -0.106066 -1.686551 -0.056539
v -0.106066 -1.686551 0.056539
v 0.000000 2.310627 -0.000000
v 0.000000 -0.600439 -0.037695
v 0.175510 -0.600439 0.000000
v -0.175510 -0.600439 0.000000
v 0.000000 -0.600439 0.037695
v -0.137147 0.855094 -0.000000
v 0.137147 0.855094 -0.000000
v 0.000000 0.855094 0.037695
v 0.000000 0.855094 -0.037695
v 0.000000 2.105569 -0.037695
v -0.063856 2.105569 -0.000000
v 0.000000 2.105569 0.037695
v 0.063856 2.105569 -0.000000
v -0.406205 -0.593886 0.000000
v -0.406205 -0.466451 0.000000
v 0.406205 -0.593886 0.000000
v 0.406205 -0.466451 0.000000
v 0.000000 -0.715869 -0.074645
v 0.000000 -0.588435 0.074645
v 0.000000 -0.588435 -0.074645
v 0.000000 -0.715869 0.074645
v 0.000000 -1.726965 -0.035943
v 0.000000 -0.660633 -0.035943
v 0.079316 -1.726965 -0.025416
v 0.079316 -0.660633 -0.025416
v 0.112170 -1.726965 0.000000
v 0.112170 -0.660633 0.000000
v 0.079316 -1.726965 0.025416
v 0.079316 -0.660633 0.025416
v 0.000000 -1.726965 0.035943
v 0.000000 -0.660633 0.035943
v -0.079316 -1.726965 0.025416
v -0.079316 -0.660633 0.025416
v -0.112170 -1.726965 0.000000
v -0.112170 -0.660633 0.000000
v -0.079316 -1.726965 -0.025416
v -0.079316 -0.660633 -0.025416
v 0.091226 -1.193799 -0.025416
v -0.129013 -1.193799 0.000000
v -0.091226 -1.193799 -0.025416
v 0.000000 -1.193799 -0.035943
v -0.091226 -1.193799 0.025416
v 0.000000 -1.193799 0.035943
v 0.091226 -1.193799 0.025416
v 0.129013 -1.193799 0.000000
vn 0.3827 0.9239 -0.0000
vn 0.9239 0.3827 -0.0000
vn 0.9239 -0.3827 -0.0000
vn 0.3827 -0.9239 -0.0000
vn -0.3827 -0.9239 -0.0000
vn -0.9239 -0.3827 -0.0000
vn -0.0000 -0.0000 1.0000
vn -0.9239 0.3827 -0.0000
vn -0.3827 0.9239 -0.0000
vn -0.0000 -0.0000 -1.0000
vn 0.2774 0.0057 0.9607
vn -0.2774 0.0057 0.9607
vn -0.0000 -1.0000 -0.0000
vn 0.2774 0.0057 -0.9607
vn -0.2774 0.0057 -0.9607
vn 0.5021 0.1564 0.8506
vn 0.5021 0.1564 -0.8506
vn -0.5021 0.1564 0.8506
vn -0.5021 0.1564 -0.8506
vn -0.1807 -0.0000 -0.9835
vn 0.1807 -0.0000 0.9835
vn -0.2876 -0.9577 -0.0000
vn -0.2876 0.9577 -0.0000
vn 0.1807 -0.0000 -0.9835
vn 0.2876 -0.9577 -0.0000
vn 0.2876 0.9577 -0.0000
vn -0.1807 -0.0000 0.9835
vn 0.1225 -0.0014 -0.9925
vn 0.1225 -0.0000 -0.9925
vn 0.5840 -0.0157 -0.8116
vn 0.5840 -0.0157 0.8116
vn 0.1225 -0.0014 0.9925
vn 0.1225 -0.0000 0.9925
vn -0.1225 -0.0014 0.9925
vn -0.1225 -0.0000 0.9925
vn -0.5840 -0.0157 0.8116
vn -0.0000 1.0000 -0.0000
vn -0.5840 -0.0157 -0.8116
vn -0.1225 -0.0014 -0.9925
vn -0.1225 -0.0000 -0.9925
vn 0.5840 0.0157 0.8116
vn -0.5840 0.0157 -0.8116
vn 0.1225 0.0014 0.9925
vn -0.1225 0.0014 -0.9925
vn -0.1225 0.0014 0.9925
vn 0.1225 0.0014 -0.9925
vn -0.5840 0.0157 0.8116
vn 0.5840 0.0157 -0.8116
vt 0.543408 0.011665
vt 0.601664 0.011665
vt 0.601664 0.070811
vt 0.543408 0.070811
vt 0.601664 0.129957
vt 0.543408 0.129957
vt 0.601664 0.189103
vt 0.543408 0.189103
vt 0.601664 0.248248
vt 0.543408 0.248248
vt 0.601664 0.307394
vt 0.543408 0.307394
vt 0.601664 0.366540
vt 0.543408 0.366540
vt 0.262313 0.605947
vt 0.304136 0.564124
vt 0.363282 0.564125
vt 0.405104 0.605947
vt 0.405104 0.665093
vt 0.363282 0.706915
vt 0.304136 0.706915
vt 0.262313 0.665093
vt 0.601664 0.425686
vt 0.543408 0.425686
vt 0.601664 0.484832
vt 0.543408 0.484832
vt 0.539559 0.804432
vt 0.480413 0.804432
vt 0.438591 0.762609
vt 0.438591 0.703463
vt 0.480413 0.661641
vt 0.539559 0.661641
vt 0.581382 0.703463
vt 0.581382 0.762609
vt 0.123437 0.000000
vt 0.110619 0.500437
vt 0.087088 0.929977
vt 0.061788 0.928849
vt 0.061740 0.500482
vt 0.061719 0.000010
vt 0.036487 0.929984
vt 0.012862 0.500445
vt 0.000000 0.000000
vt 0.581382 0.569158
vt 0.581382 0.661641
vt 0.543408 0.577314
vt 0.185156 0.999990
vt 0.185178 0.499518
vt 0.185225 0.071151
vt 0.210526 0.070023
vt 0.234056 0.499563
vt 0.246874 1.000000
vt 0.123437 1.000000
vt 0.136299 0.499555
vt 0.159925 0.070016
vt 0.061798 1.000000
vt 0.185236 0.000000
vt 0.743065 0.437215
vt 0.677412 0.437215
vt 0.740257 0.224440
vt 0.805909 0.224440
vt 0.743065 0.862765
vt 0.677412 0.862765
vt 0.740257 0.649990
vt 0.805909 0.649990
vt 0.677412 0.442057
vt 0.677412 0.663918
vt 0.601664 0.650587
vt 0.677412 0.011665
vt 0.677412 0.233527
vt 0.601664 0.220195
vt 0.677412 0.011665
vt 0.743065 0.011665
vt 0.601664 0.872449
vt 0.601664 0.442057
vt 0.466092 0.013180
vt 0.472593 0.287873
vt 0.425722 0.287862
vt 0.424630 0.014192
vt 0.402850 0.287857
vt 0.402880 0.014707
vt 0.379978 0.287851
vt 0.381133 0.014216
vt 0.333114 0.287840
vt 0.339680 0.013195
vt 0.285861 0.287829
vt 0.298228 0.012246
vt 0.262313 0.287824
vt 0.276698 0.011665
vt 0.262313 0.802986
vt 0.262313 0.761765
vt 0.273066 0.721972
vt 0.288273 0.706915
vt 0.299026 0.725417
vt 0.299026 0.766638
vt 0.288274 0.806431
vt 0.273067 0.821487
vt 0.529090 0.011665
vt 0.543408 0.287890
vt 0.519854 0.287884
vt 0.507555 0.012241
vt 0.335739 0.766638
vt 0.324986 0.806431
vt 0.309779 0.821487
vt 0.299026 0.802986
vt 0.299026 0.761765
vt 0.309779 0.721972
vt 0.324986 0.706915
vt 0.335739 0.725417
vt 0.402755 0.560997
vt 0.381008 0.561478
vt 0.528966 0.564124
vt 0.507430 0.563539
vt 0.339556 0.562481
vt 0.465965 0.562581
vt 0.298103 0.563411
vt 0.424503 0.561522
vt 0.276574 0.563983
s 1
usemtl Material.002
f 1/1/1 2/2/1 4/3/1 3/4/1
f 3/4/2 4/3/2 6/5/2 5/6/2
f 5/6/3 6/5/3 8/7/3 7/8/3
f 7/8/4 8/7/4 10/9/4 9/10/4
f 9/10/5 10/9/5 12/11/5 11/12/5
f 11/12/6 12/11/6 14/13/6 13/14/6
f 4/15/7 2/16/7 16/17/7 14/18/7 12/19/7 10/20/7 8/21/7 6/22/7
f 13/14/8 14/13/8 16/23/8 15/24/8
f 15/24/9 16/23/9 2/25/9 1/26/9
f 1/27/10 3/28/10 5/29/10 7/30/10 9/31/10 11/32/10 13/33/10 15/34/10
f 19/35/11 23/36/11 29/37/11 28/38/11 24/39/11 21/40/11
f 21/40/12 24/39/12 28/38/12 27/41/12 22/42/12 20/43/12
f 20/26/13 18/44/13 19/45/13 21/46/13
f 18/47/14 25/48/14 26/49/14 29/50/14 23/51/14 19/52/14
f 20/53/15 22/54/15 27/55/15 26/49/15 25/48/15 18/47/15
f 28/38/16 29/37/16 17/56/16
f 29/50/17 26/49/17 17/57/17
f 27/41/18 28/38/18 17/56/18
f 26/49/19 27/55/19 17/57/19
f 30/58/20 31/59/20 36/60/20 34/61/20
f 32/62/21 33/63/21 35/64/21 37/65/21
f 30/66/22 34/67/22 37/68/22
f 33/69/23 36/70/23 35/71/23
f 34/61/24 36/60/24 33/72/24 32/73/24
f 37/68/25 34/67/25 32/74/25
f 35/71/26 36/70/26 31/75/26
f 37/65/27 35/64/27 31/59/27 30/58/27
f 38/76/28 57/77/29 54/78/29 40/79/28
f 40/79/30 54/78/30 61/80/30 42/81/30
f 42/81/31 61/80/31 60/82/31 44/83/31
f 44/83/32 60/82/33 59/84/33 46/85/32
f 46/85/34 59/84/35 58/86/35 48/87/34
f 48/87/36 58/86/36 55/88/36 50/89/36
f 41/90/37 39/91/37 53/92/37 51/93/37 49/94/37 47/95/37 45/96/37 43/97/37
f 50/98/38 55/99/38 56/100/38 52/101/38
f 52/101/39 56/100/40 57/77/40 38/76/39
f 38/102/13 40/103/13 42/104/13 44/105/13 46/106/13 48/107/13 50/108/13 52/109/13
f 60/82/41 61/80/41 43/110/41 45/111/41
f 56/100/42 55/99/42 51/112/42 53/113/42
f 59/84/33 60/82/33 45/111/43 47/114/43
f 57/77/40 56/100/40 53/113/44 39/115/44
f 58/86/35 59/84/35 47/114/45 49/116/45
f 54/78/29 57/77/29 39/115/46 41/117/46
f 55/88/47 58/86/47 49/116/47 51/118/47
f 61/80/48 54/78/48 41/117/48 43/110/48
l 23 24
l 22 24
l 23 25
l 22 25
