# Blender 5.0.0
# www.blender.org
mtllib NORMALSWORD.mtl
o Cylinder.001
v 0.000000 -1.524389 -0.087913
v 0.000000 -1.524390 0.087913
v 0.049497 -1.544892 -0.087913
v 0.049497 -1.544892 0.087913
v 0.070000 -1.594389 -0.087913
v 0.070000 -1.594389 0.087913
v 0.049497 -1.643887 -0.087913
v 0.049497 -1.643887 0.087913
v 0.000000 -1.664389 -0.087913
v 0.000000 -1.664389 0.087913
v -0.049497 -1.643887 -0.087913
v -0.049497 -1.643887 0.087913
v -0.070000 -1.594389 -0.087913
v -0.070000 -1.594389 0.087913
v -0.049497 -1.544892 -0.087913
v -0.049497 -1.544892 0.087913
v -0.001514 -1.559172 0.043489
v 0.000207 1.951311 -0.000000
v -0.175916 -1.559172 0.000397
v 0.176104 -1.559172 -0.000397
v 0.001210 -1.559172 -0.043489
v 0.143594 1.724141 -0.000223
v 0.000794 1.723852 -0.043489
v -0.142631 1.724141 0.000223
v -0.001849 1.724140 0.043489
v -0.663310 -1.572634 0.018020
v -0.663310 -1.473616 0.018020
v -0.663310 -1.572634 -0.018020
v -0.663310 -1.473616 -0.018020
v 0.663310 -1.572634 0.015868
v 0.663310 -1.473616 0.015868
v 0.663310 -1.572634 -0.015868
v 0.663310 -1.473616 -0.015868
v 0.000000 -1.499577 0.067375
v 0.000000 -1.689500 0.067375
v 0.331655 -1.656283 0.027130
v -0.331655 -1.656283 0.031249
v -0.331655 -1.532794 0.031249
v 0.331655 -1.532794 0.027130
v 0.000000 -1.499577 -0.067375
v -0.331655 -1.532794 -0.031249
v 0.331655 -1.532794 -0.027130
v 0.000000 -1.689500 -0.067375
v 0.331655 -1.656283 -0.027130
v -0.331655 -1.656283 -0.031249
v 0.000000 -2.777424 -0.049573
v 0.000000 -1.589998 -0.049573
v 0.061354 -2.777424 -0.035053
v 0.076548 -1.589998 -0.035053
v 0.086768 -2.777424 0.000000
v 0.108255 -1.589998 0.000000
v 0.061354 -2.777424 0.035053
v 0.076548 -1.589998 0.035053
v 0.000000 -2.777424 0.049573
v 0.000000 -1.589998 0.049573
v -0.061354 -2.777424 0.035053
v -0.076548 -1.589998 0.035053
v -0.086768 -2.777424 0.000000
v -0.108255 -1.589998 0.000000
v -0.061355 -2.777424 -0.035053
v -0.076548 -1.589998 -0.035053
v 0.000000 -2.737163 -0.070000
v 0.000000 -2.737163 0.070000
v 0.106066 -2.781097 -0.070000
v 0.106066 -2.781097 0.070000
v 0.150000 -2.887163 -0.070000
v 0.150000 -2.887163 0.070000
v 0.106066 -2.993229 -0.070000
v 0.106066 -2.993229 0.070000
v 0.000000 -3.037163 -0.070000
v 0.000000 -3.037163 0.070000
v -0.106066 -2.993229 -0.070000
v -0.106066 -2.993229 0.070000
v -0.150000 -2.887163 -0.070000
v -0.150000 -2.887163 0.070000
v -0.106066 -2.781097 -0.070000
v -0.106066 -2.781097 0.070000
vn 0.3827 0.9239 -0.0000
vn 0.9239 0.3827 -0.0000
vn 0.9239 -0.3827 -0.0000
vn 0.3827 -0.9239 -0.0000
vn -0.3827 -0.9239 -0.0000
vn -0.9239 -0.3827 -0.0000
vn -0.0000 -0.0000 1.0000
vn -0.9239 0.3827 -0.0000
vn -0.3827 0.9239 -0.0000
vn -0.0000 -0.0000 -1.0000
vn -0.2643 0.0014 0.9645
vn -0.2636 0.0013 -0.9646
vn 0.2623 0.0013 -0.9650
vn 0.2617 0.0013 0.9651
vn -0.0000 -1.0000 -0.0000
vn -0.2865 0.1792 -0.9412
vn 0.2849 0.1807 -0.9414
vn -0.2888 0.1825 0.9398
vn 0.2832 0.1779 0.9424
vn -0.0399 -0.0000 -0.9992
vn -0.1083 -0.0000 -0.9941
vn 0.1205 -0.0000 -0.9927
vn 0.0339 -0.0000 -0.9994
vn 0.0339 -0.0000 0.9994
vn 1.0000 -0.0000 -0.0000
vn 0.2446 -0.9696 -0.0000
vn 0.0997 -0.9950 -0.0000
vn -0.0997 -0.9950 -0.0000
vn -0.2446 -0.9696 -0.0000
vn 0.1757 0.9845 -0.0000
vn -0.0997 0.9950 -0.0000
vn 0.0997 0.9950 -0.0000
vn -0.1757 0.9845 -0.0000
vn -1.0000 -0.0000 -0.0000
vn 0.1205 -0.0000 0.9927
vn -0.1083 -0.0000 0.9941
vn -0.0399 -0.0000 0.9992
vn 0.2061 -0.0013 -0.9785
vn 0.7752 -0.0120 -0.6316
vn 0.7752 -0.0120 0.6316
vn 0.2061 -0.0013 0.9785
vn -0.2061 -0.0013 0.9785
vn -0.7752 -0.0120 0.6316
vn -0.0000 1.0000 -0.0000
vn -0.7752 -0.0120 -0.6316
vn -0.2061 -0.0013 -0.9785
vt 0.491546 0.611786
vt 0.416511 0.611786
vt 0.416511 0.588923
vt 0.491546 0.588923
vt 0.416511 0.566059
vt 0.491546 0.566059
vt 0.416511 0.543195
vt 0.491546 0.543195
vt 0.416511 0.520331
vt 0.491546 0.520331
vt 0.491546 0.703241
vt 0.416511 0.703241
vt 0.416511 0.680378
vt 0.491546 0.680378
vt 0.416511 0.657513
vt 0.491546 0.657514
vt 0.286129 0.756160
vt 0.286129 0.779024
vt 0.269962 0.795191
vt 0.247098 0.795191
vt 0.230931 0.779024
vt 0.230931 0.756160
vt 0.247098 0.739993
vt 0.269962 0.739993
vt 0.416511 0.634650
vt 0.491546 0.634650
vt 0.362752 0.738156
vt 0.378919 0.754324
vt 0.378919 0.777187
vt 0.362751 0.793354
vt 0.339888 0.793354
vt 0.323721 0.777187
vt 0.323721 0.754323
vt 0.339888 0.738156
vt 0.155054 0.000220
vt 0.155009 0.934071
vt 0.113170 0.935079
vt 0.103904 0.000220
vt 0.000220 0.999776
vt 0.009508 0.064930
vt 0.052102 0.066002
vt 0.052177 0.999780
vt 0.094488 0.064929
vt 0.103464 0.999780
vt 0.207146 0.000220
vt 0.198154 0.935044
vt 0.527912 0.520331
vt 0.527962 0.598206
vt 0.492206 0.666254
vt 0.492206 0.588174
vt 0.051915 0.000220
vt 0.155643 0.999771
vt 0.280804 0.028215
vt 0.323061 0.028215
vt 0.297806 0.169863
vt 0.245106 0.169863
vt 0.311982 0.312237
vt 0.230931 0.312237
vt 0.297806 0.454811
vt 0.245106 0.454811
vt 0.323061 0.596429
vt 0.280804 0.596429
vt 0.323721 0.581048
vt 0.348976 0.439431
vt 0.401675 0.439431
vt 0.365977 0.581048
vt 0.365977 0.594592
vt 0.323721 0.594592
vt 0.560759 0.520331
vt 0.574303 0.520331
vt 0.579109 0.666300
vt 0.555953 0.666300
vt 0.230931 0.597089
vt 0.288436 0.597089
vt 0.271261 0.739333
vt 0.248106 0.739333
vt 0.339138 0.595252
vt 0.365809 0.595252
vt 0.381226 0.737496
vt 0.323721 0.737496
vt 0.549648 0.520331
vt 0.555293 0.666300
vt 0.528622 0.666300
vt 0.534268 0.520331
vt 0.402912 0.739023
vt 0.387532 0.739023
vt 0.381886 0.595252
vt 0.408558 0.595252
vt 0.637275 0.662575
vt 0.579769 0.662575
vt 0.595186 0.520331
vt 0.621858 0.520331
vt 0.678265 0.662575
vt 0.655109 0.662575
vt 0.637935 0.520331
vt 0.695440 0.520331
vt 0.289096 0.597089
vt 0.312252 0.597089
vt 0.307446 0.740860
vt 0.293902 0.740860
vt 0.280804 0.012834
vt 0.323061 0.012834
vt 0.334800 0.296856
vt 0.415851 0.296856
vt 0.401675 0.154483
vt 0.348976 0.154483
vt 0.323721 0.012834
vt 0.365978 0.012834
vt 0.577433 0.012927
vt 0.577433 0.519669
vt 0.544183 0.519671
vt 0.550527 0.012927
vt 0.524012 0.519596
vt 0.532050 0.012834
vt 0.515315 0.012834
vt 0.523352 0.519596
vt 0.503182 0.519671
vt 0.496838 0.012927
vt 0.469932 0.519670
vt 0.469932 0.012927
vt 0.436682 0.519671
vt 0.443025 0.012927
vt 0.416511 0.519596
vt 0.424548 0.012834
vt 0.673084 0.421527
vt 0.673084 0.454777
vt 0.660908 0.485717
vt 0.643689 0.496224
vt 0.631514 0.480142
vt 0.631514 0.446892
vt 0.643690 0.415951
vt 0.660908 0.405445
vt 0.622817 0.012834
vt 0.630854 0.519596
vt 0.610683 0.519671
vt 0.604340 0.012927
vt 0.647564 0.707865
vt 0.647564 0.680959
vt 0.659623 0.666960
vt 0.676678 0.674069
vt 0.688738 0.698121
vt 0.688738 0.725028
vt 0.676678 0.739027
vt 0.659624 0.731918
vt 0.631514 0.012834
vt 0.691260 0.012834
vt 0.691260 0.061828
vt 0.631514 0.061828
vt 0.691260 0.110822
vt 0.631514 0.110822
vt 0.691260 0.159816
vt 0.631514 0.159816
vt 0.691260 0.208810
vt 0.631514 0.208810
vt 0.691260 0.257804
vt 0.631514 0.257804
vt 0.691260 0.306797
vt 0.631514 0.306797
vt 0.465524 0.857965
vt 0.416530 0.857965
vt 0.381886 0.823321
vt 0.381886 0.774327
vt 0.416530 0.739684
vt 0.465524 0.739684
vt 0.500168 0.774327
vt 0.500168 0.823321
vt 0.691260 0.355791
vt 0.631514 0.355791
vt 0.691260 0.404785
vt 0.631514 0.404785
vt 0.612260 0.666960
vt 0.646904 0.701604
vt 0.646904 0.750597
vt 0.612260 0.785241
vt 0.563266 0.785241
vt 0.528622 0.750597
vt 0.528622 0.701604
vt 0.563266 0.666960
s 1
f 1/1/1 2/2/1 4/3/1 3/4/1
f 3/4/2 4/3/2 6/5/2 5/6/2
f 5/6/3 6/5/3 8/7/3 7/8/3
f 7/8/4 8/7/4 10/9/4 9/10/4
f 9/11/5 10/12/5 12/13/5 11/14/5
f 11/14/6 12/13/6 14/15/6 13/16/6
f 4/17/7 2/18/7 16/19/7 14/20/7 12/21/7 10/22/7 8/23/7 6/24/7
f 13/16/8 14/15/8 16/25/8 15/26/8
f 15/26/9 16/25/9 2/2/9 1/1/9
f 1/27/10 3/28/10 5/29/10 7/30/10 9/31/10 11/32/10 13/33/10 15/34/10
f 17/35/11 25/36/11 24/37/11 19/38/11
f 19/39/12 24/40/12 23/41/12 21/42/12
f 21/42/13 23/41/13 22/43/13 20/44/13
f 20/45/14 22/46/14 25/36/14 17/35/14
f 19/47/15 21/48/15 20/49/15 17/50/15
f 23/41/16 24/40/16 18/51/16
f 22/43/17 23/41/17 18/51/17
f 24/37/18 25/36/18 18/52/18
f 25/36/19 22/46/19 18/52/19
f 28/53/20 29/54/20 41/55/20 45/56/20
f 41/55/21 40/57/21 43/58/21 45/56/21
f 40/57/22 42/59/22 44/60/22 43/58/22
f 42/59/23 33/61/23 32/62/23 44/60/23
f 31/63/24 39/64/24 36/65/24 30/66/24
f 32/67/25 33/68/25 31/63/25 30/66/25
f 32/69/26 30/70/26 36/71/26 44/72/26
f 35/73/27 43/74/27 44/75/27 36/76/27
f 37/77/28 45/78/28 43/79/28 35/80/28
f 28/81/29 45/82/29 37/83/29 26/84/29
f 29/85/30 27/86/30 38/87/30 41/88/30
f 34/89/31 40/90/31 41/91/31 38/92/31
f 39/93/32 42/94/32 40/95/32 34/96/32
f 42/97/33 39/98/33 31/99/33 33/100/33
f 28/53/34 26/101/34 27/102/34 29/54/34
f 39/64/35 34/103/35 35/104/35 36/65/35
f 37/105/36 35/104/36 34/103/36 38/106/36
f 27/107/37 26/108/37 37/105/37 38/106/37
f 46/109/38 47/110/38 49/111/38 48/112/38
f 48/112/39 49/111/39 51/113/39 50/114/39
f 50/115/40 51/116/40 53/117/40 52/118/40
f 52/118/41 53/117/41 55/119/41 54/120/41
f 54/120/42 55/119/42 57/121/42 56/122/42
f 56/122/43 57/121/43 59/123/43 58/124/43
f 49/125/44 47/126/44 61/127/44 59/128/44 57/129/44 55/130/44 53/131/44 51/132/44
f 58/133/45 59/134/45 61/135/45 60/136/45
f 60/136/46 61/135/46 47/110/46 46/109/46
f 46/137/15 48/138/15 50/139/15 52/140/15 54/141/15 56/142/15 58/143/15 60/144/15
f 62/145/1 63/146/1 65/147/1 64/148/1
f 64/148/2 65/147/2 67/149/2 66/150/2
f 66/150/3 67/149/3 69/151/3 68/152/3
f 68/152/4 69/151/4 71/153/4 70/154/4
f 70/154/5 71/153/5 73/155/5 72/156/5
f 72/156/6 73/155/6 75/157/6 74/158/6
f 65/159/7 63/160/7 77/161/7 75/162/7 73/163/7 71/164/7 69/165/7 67/166/7
f 74/158/8 75/157/8 77/167/8 76/168/8
f 76/168/9 77/167/9 63/169/9 62/170/9
f 62/171/10 64/172/10 66/173/10 68/174/10 70/175/10 72/176/10 74/177/10 76/178/10
