# Blender 4.5.3 LTS
# www.blender.org
mtllib SMALLSWORD1.mtl
o Cube
v 0.000000 1.592357 0.000000
v 0.000000 -0.623237 -0.043404
v 0.202092 -0.623237 0.000000
v -0.202092 -0.623237 0.000000
v 0.000000 -0.623237 0.043404
v -0.157919 0.484560 0.000000
v 0.157919 0.484560 0.000000
v 0.000000 0.484560 0.043404
v 0.000000 0.484560 -0.043404
v 0.000000 1.436289 -0.043404
v -0.073527 1.436289 0.000000
v 0.000000 1.436289 0.043404
v 0.073527 1.436289 0.000000
vn 0.2774 0.0087 0.9607
vn -0.2774 0.0087 0.9607
vn -0.0000 -1.0000 -0.0000
vn 0.2774 0.0087 -0.9607
vn -0.2774 0.0087 -0.9607
vn 0.4944 0.2329 0.8375
vn 0.4944 0.2329 -0.8375
vn -0.4944 0.2329 0.8375
vn -0.4944 0.2329 -0.8375
vt 0.375000 0.750000
vt 0.500000 0.750000
vt 0.607390 0.750000
vt 0.607390 1.000000
vt 0.500000 1.000000
vt 0.375000 1.000000
vt 0.375000 0.000000
vt 0.500000 0.000000
vt 0.607390 0.000000
vt 0.607390 0.250000
vt 0.500000 0.250000
vt 0.375000 0.250000
vt 0.125000 0.500000
vt 0.375000 0.500000
vt 0.125000 0.750000
vt 0.500000 0.500000
vt 0.607390 0.500000
vt 0.625000 1.000000
vt 0.625000 0.750000
vt 0.625000 0.250000
vt 0.625000 0.500000
s 0
usemtl Material
f 3/1/1 7/2/1 13/3/1 12/4/1 8/5/1 5/6/1
f 5/7/2 8/8/2 12/9/2 11/10/2 6/11/2 4/12/2
f 4/13/3 2/14/3 3/1/3 5/15/3
f 2/14/4 9/16/4 10/17/4 13/3/4 7/2/4 3/1/4
f 4/12/5 6/11/5 11/10/5 10/17/5 9/16/5 2/14/5
f 12/4/6 13/3/6 1/18/6
f 13/3/7 10/17/7 1/19/7
f 11/10/8 12/9/8 1/20/8
f 10/17/9 11/10/9 1/21/9
l 7 8
l 6 8
l 7 9
l 6 9
o Cube.001
v -0.406205 -0.618250 0.000000
v -0.406205 -0.521260 0.000000
v 0.406205 -0.618250 0.000000
v 0.406205 -0.521260 0.000000
v -0.000000 -0.711091 -0.074645
v 0.000000 -0.614101 0.074645
v 0.000000 -0.614101 -0.074645
v -0.000000 -0.711091 0.074645
vn -0.1807 -0.0000 -0.9835
vn 0.1807 -0.0000 0.9835
vn -0.2228 -0.9749 -0.0000
vn -0.2228 0.9749 -0.0000
vn 0.1807 -0.0000 -0.9835
vn 0.2228 -0.9749 -0.0000
vn 0.2228 0.9749 -0.0000
vn -0.1807 -0.0000 0.9835
vt 0.375000 0.250000
vt 0.625000 0.250000
vt 0.625000 0.375000
vt 0.375000 0.375000
vt 0.375000 0.750000
vt 0.625000 0.750000
vt 0.625000 0.875000
vt 0.375000 0.875000
vt 0.125000 0.500000
vt 0.250000 0.500000
vt 0.250000 0.750000
vt 0.625000 0.500000
vt 0.750000 0.500000
vt 0.750000 0.750000
vt 0.375000 0.500000
vt 0.875000 0.750000
vt 0.625000 1.000000
vt 0.375000 1.000000
s 0
f 14/22/10 15/23/10 20/24/10 18/25/10
f 16/26/11 17/27/11 19/28/11 21/29/11
f 14/30/12 18/31/12 21/32/12
f 17/33/13 20/34/13 19/35/13
f 18/25/14 20/24/14 17/33/14 16/36/14
f 21/32/15 18/31/15 16/26/15
f 19/35/16 20/34/16 15/37/16
f 21/29/17 19/28/17 15/38/17 14/39/17
o Cylinder
v 0.000000 -1.480630 -0.035943
v 0.000000 -0.669051 -0.035943
v 0.079316 -1.480630 -0.025416
v 0.079316 -0.669051 -0.025416
v 0.112170 -1.480630 0.000000
v 0.112170 -0.669051 0.000000
v 0.079316 -1.480630 0.025416
v 0.079316 -0.669051 0.025416
v 0.000000 -1.480630 0.035943
v 0.000000 -0.669051 0.035943
v -0.079316 -1.480630 0.025416
v -0.079316 -0.669051 0.025416
v -0.112170 -1.480630 0.000000
v -0.112170 -0.669051 0.000000
v -0.079316 -1.480630 -0.025416
v -0.079316 -0.669051 -0.025416
v 0.091226 -1.074841 -0.025416
v -0.129013 -1.074841 0.000000
v -0.091226 -1.074841 -0.025416
v 0.000000 -1.074841 -0.035943
v -0.091226 -1.074841 0.025416
v 0.000000 -1.074841 0.035943
v 0.091226 -1.074841 0.025416
v 0.129013 -1.074841 0.000000
vn 0.1225 -0.0018 -0.9925
vn 0.5840 -0.0207 -0.8115
vn 0.5840 -0.0207 0.8115
vn 0.1225 -0.0018 0.9925
vn -0.1225 -0.0018 0.9925
vn -0.5840 -0.0207 0.8115
vn -0.0000 1.0000 -0.0000
vn -0.5840 -0.0207 -0.8115
vn -0.1225 -0.0018 -0.9925
vn -0.0000 -1.0000 -0.0000
vn 0.5840 0.0207 0.8115
vn -0.5840 0.0207 -0.8115
vn 0.1225 0.0018 0.9925
vn -0.1225 0.0018 -0.9925
vn -0.1225 0.0018 0.9925
vn 0.1225 0.0018 -0.9925
vn -0.5840 0.0207 0.8115
vn 0.5840 0.0207 -0.8115
vt 1.000000 0.500000
vt 1.000000 0.750000
vt 0.875000 0.750000
vt 0.875000 0.500000
vt 0.750000 0.750000
vt 0.750000 0.500000
vt 0.625000 0.750000
vt 0.625000 0.500000
vt 0.500000 0.750000
vt 0.500000 0.500000
vt 0.375000 0.750000
vt 0.375000 0.500000
vt 0.250000 0.750000
vt 0.250000 0.500000
vt 0.419706 0.419706
vt 0.250000 0.490000
vt 0.080294 0.419706
vt 0.010000 0.250000
vt 0.080294 0.080294
vt 0.250000 0.010000
vt 0.419706 0.080294
vt 0.490000 0.250000
vt 0.125000 0.750000
vt 0.125000 0.500000
vt 0.000000 0.750000
vt 0.000000 0.500000
vt 0.750000 0.490000
vt 0.919706 0.419706
vt 0.990000 0.250000
vt 0.919706 0.080294
vt 0.750000 0.010000
vt 0.580294 0.080294
vt 0.510000 0.250000
vt 0.580294 0.419706
vt 0.750000 1.000000
vt 0.625000 1.000000
vt 0.250000 1.000000
vt 0.125000 1.000000
vt 0.500000 1.000000
vt 0.000000 1.000000
vt 0.375000 1.000000
vt 1.000000 1.000000
vt 0.875000 1.000000
s 0
f 22/40/18 41/41/18 38/42/18 24/43/18
f 24/43/19 38/42/19 45/44/19 26/45/19
f 26/45/20 45/44/20 44/46/20 28/47/20
f 28/47/21 44/46/21 43/48/21 30/49/21
f 30/49/22 43/48/22 42/50/22 32/51/22
f 32/51/23 42/50/23 39/52/23 34/53/23
f 25/54/24 23/55/24 37/56/24 35/57/24 33/58/24 31/59/24 29/60/24 27/61/24
f 34/53/25 39/52/25 40/62/25 36/63/25
f 36/63/26 40/62/26 41/64/26 22/65/26
f 22/66/27 24/67/27 26/68/27 28/69/27 30/70/27 32/71/27 34/72/27 36/73/27
f 44/46/28 45/44/28 27/74/28 29/75/28
f 40/62/29 39/52/29 35/76/29 37/77/29
f 43/48/30 44/46/30 29/75/30 31/78/30
f 41/64/31 40/62/31 37/77/31 23/79/31
f 42/50/32 43/48/32 31/78/32 33/80/32
f 38/42/33 41/41/33 23/81/33 25/82/33
f 39/52/34 42/50/34 33/80/34 35/76/34
f 45/44/35 38/42/35 25/82/35 27/74/35
o Cylinder.001
v 0.000000 -1.416433 -0.056539
v 0.000000 -1.416433 0.056539
v 0.106066 -1.449871 -0.056539
v 0.106066 -1.449871 0.056539
v 0.150000 -1.530597 -0.056539
v 0.150000 -1.530597 0.056539
v 0.106066 -1.611323 -0.056539
v 0.106066 -1.611323 0.056539
v 0.000000 -1.644761 -0.056539
v 0.000000 -1.644761 0.056539
v -0.106066 -1.611323 -0.056539
v -0.106066 -1.611323 0.056539
v -0.150000 -1.530597 -0.056539
v -0.150000 -1.530597 0.056539
v -0.106066 -1.449871 -0.056539
v -0.106066 -1.449871 0.056539
vn 0.3007 0.9537 -0.0000
vn 0.8783 0.4780 -0.0000
vn 0.8783 -0.4780 -0.0000
vn 0.3007 -0.9537 -0.0000
vn -0.3007 -0.9537 -0.0000
vn -0.8783 -0.4780 -0.0000
vn -0.0000 -0.0000 1.0000
vn -0.8783 0.4780 -0.0000
vn -0.3007 0.9537 -0.0000
vn -0.0000 -0.0000 -1.0000
vt 1.000000 0.500000
vt 1.000000 1.000000
vt 0.875000 1.000000
vt 0.875000 0.500000
vt 0.750000 1.000000
vt 0.750000 0.500000
vt 0.625000 1.000000
vt 0.625000 0.500000
vt 0.500000 1.000000
vt 0.500000 0.500000
vt 0.375000 1.000000
vt 0.375000 0.500000
vt 0.250000 1.000000
vt 0.250000 0.500000
vt 0.419706 0.419706
vt 0.250000 0.490000
vt 0.080294 0.419706
vt 0.010000 0.250000
vt 0.080294 0.080294
vt 0.250000 0.010000
vt 0.419706 0.080294
vt 0.490000 0.250000
vt 0.125000 1.000000
vt 0.125000 0.500000
vt 0.000000 1.000000
vt 0.000000 0.500000
vt 0.750000 0.490000
vt 0.919706 0.419706
vt 0.990000 0.250000
vt 0.919706 0.080294
vt 0.750000 0.010000
vt 0.580294 0.080294
vt 0.510000 0.250000
vt 0.580294 0.419706
s 0
f 46/83/36 47/84/36 49/85/36 48/86/36
f 48/86/37 49/85/37 51/87/37 50/88/37
f 50/88/38 51/87/38 53/89/38 52/90/38
f 52/90/39 53/89/39 55/91/39 54/92/39
f 54/92/40 55/91/40 57/93/40 56/94/40
f 56/94/41 57/93/41 59/95/41 58/96/41
f 49/97/42 47/98/42 61/99/42 59/100/42 57/101/42 55/102/42 53/103/42 51/104/42
f 58/96/43 59/95/43 61/105/43 60/106/43
f 60/106/44 61/105/44 47/107/44 46/108/44
f 46/109/45 48/110/45 50/111/45 52/112/45 54/113/45 56/114/45 58/115/45 60/116/45
